<?xml version="1.0" encoding="UTF-8"?>
<svg xmlns="http://www.w3.org/2000/svg" viewBox="0 0 1200 630" width="1200" height="630">
  <defs>
    <linearGradient id="g60013" x1="87.15724127386972%" y1="16.54346968205708%" x2="12.842758726130292%" y2="83.45653031794292%">
      <stop offset="0%" stop-color="#D97706"/>
      <stop offset="100%" stop-color="#B45309"/>
    </linearGradient>
  </defs>
  <rect width="1200" height="630" fill="url(#g60013)"/>
  <polygon points="457.3235988570377,238.9387144241482 527.3235988570377,198.9387144241482 597.3235988570377,238.9387144241482 527.3235988570377,278.9387144241482" fill="rgba(255,255,255,0.08)" stroke="rgba(255,255,255,0.15)" stroke-width="2"/><line x1="587.3235988570377" y1="243.9387144241482" x2="587.3235988570377" y2="298.9387144241482" stroke="rgba(255,255,255,0.12)" stroke-width="2"/><path d="M 941.8500791769475 391.30240832455456 C 911.8500791769475 381.30240832455456 861.8500791769475 386.30240832455456 851.8500791769475 321.30240832455456 L 941.8500791769475 331.30240832455456 L 1031.8500791769475 321.30240832455456 C 1021.8500791769475 386.30240832455456 971.8500791769475 381.30240832455456 941.8500791769475 391.30240832455456 Z" fill="rgba(255,255,255,0.06)" stroke="rgba(255,255,255,0.12)" stroke-width="1.5"/><line x1="941.8500791769475" y1="391.30240832455456" x2="941.8500791769475" y2="331.30240832455456" stroke="rgba(255,255,255,0.12)" stroke-width="1.5"/><rect x="204.94915761519223" y="358.1004600226879" width="8" height="100" rx="1" fill="rgba(255,255,255,0.1)" transform="rotate(31.017889194190502 204.94915761519223 358.1004600226879)"/><circle cx="967.0660777715966" cy="153.5920955054462" r="30" fill="none" stroke="rgba(255,255,255,0.12)" stroke-width="2"/><line x1="957.0660777715966" y1="183.5920955054462" x2="977.0660777715966" y2="183.5920955054462" stroke="rgba(255,255,255,0.1)" stroke-width="2"/><line x1="959.0660777715966" y1="190.5920955054462" x2="975.0660777715966" y2="190.5920955054462" stroke="rgba(255,255,255,0.1)" stroke-width="2"/><circle cx="64.92538976017386" cy="281.9768904685043" r="5.895318016409874" fill="rgba(255,255,255,0.08967624437063933)"/><circle cx="1039.3881562864408" cy="285.60106843011454" r="2.927119532600045" fill="rgba(255,255,255,0.10101407442241908)"/><circle cx="1144.619269715622" cy="487.37392022507265" r="2.489584069699049" fill="rgba(255,255,255,0.08265825290232898)"/><circle cx="586.7328852880746" cy="491.1062471452169" r="2.3221259163692594" fill="rgba(255,255,255,0.050179922953248024)"/><circle cx="1011.8917527375743" cy="156.21651902562007" r="3.0673239389434457" fill="rgba(255,255,255,0.10308827597647904)"/><circle cx="802.6194519363344" cy="219.4568546442315" r="2.755872464738786" fill="rgba(255,255,255,0.08613972185179591)"/><circle cx="346.30885899532586" cy="239.2065566801466" r="4.587507667951286" fill="rgba(255,255,255,0.09465866526588798)"/><circle cx="999.9992212979123" cy="56.460645908955485" r="3.8654756946489215" fill="rgba(255,255,255,0.08272647002711891)"/><circle cx="1114.267238532193" cy="452.14271516073495" r="5.085614741779864" fill="rgba(255,255,255,0.05763838991522789)"/><circle cx="605.6821612641215" cy="190.77420878224075" r="4.935251858085394" fill="rgba(255,255,255,0.05191368767991662)"/><circle cx="531.4602504018694" cy="132.54658667137846" r="5.964821752160788" fill="rgba(255,255,255,0.07000468783080578)"/><circle cx="585.9338263981044" cy="447.20522101037204" r="5.573623078875244" fill="rgba(255,255,255,0.08622275691479445)"/><circle cx="618.6344307847321" cy="192.8489143308252" r="4.105008243583143" fill="rgba(255,255,255,0.05265717150643468)"/><circle cx="570.0780930928886" cy="211.8786010099575" r="3.361747463233769" fill="rgba(255,255,255,0.10763812156394123)"/><circle cx="894.3030079361051" cy="239.80065800948068" r="5.5218666438013315" fill="rgba(255,255,255,0.07626991171389819)"/>
  <circle cx="949.2554596625268" cy="460.509965645615" r="1.0077322432771325" fill="rgba(255,255,255,0.06608560655266046)"/><circle cx="1009.6138212829828" cy="628.4104021126404" r="1.3608574806712568" fill="rgba(255,255,255,0.039040125645697116)"/><circle cx="1079.4762566685677" cy="350.7156528532505" r="1.7587961414828897" fill="rgba(255,255,255,0.04154749258421361)"/><circle cx="28.143915440887213" cy="284.31396323489025" r="1.9531930382363498" fill="rgba(255,255,255,0.07982958849286662)"/><circle cx="85.58372547850013" cy="6.603673906065524" r="2.1964087202213705" fill="rgba(255,255,255,0.06696668555494398)"/><circle cx="907.9111475497484" cy="594.849977188278" r="2.2908660396933556" fill="rgba(255,255,255,0.07026825907640159)"/><circle cx="854.6920660883188" cy="333.1481954175979" r="2.136875359341502" fill="rgba(255,255,255,0.05723183416528627)"/><circle cx="708.5554523393512" cy="457.42933665169403" r="1.6847962327301502" fill="rgba(255,255,255,0.03790837454842404)"/><circle cx="1055.9764377772808" cy="60.9396863495931" r="1.3308529565110803" fill="rgba(255,255,255,0.050961041224654766)"/><circle cx="541.0142619162798" cy="220.2862289431505" r="2.1097901621833444" fill="rgba(255,255,255,0.07231397723779082)"/><circle cx="371.30876909941435" cy="607.7868540398777" r="1.834865047596395" fill="rgba(255,255,255,0.07178460327675566)"/><circle cx="687.9663652740419" cy="271.9740878767334" r="2.041184942238033" fill="rgba(255,255,255,0.03415135003859177)"/><circle cx="1112.638885807246" cy="532.2793339798227" r="2.355905913282186" fill="rgba(255,255,255,0.07049741518683732)"/><circle cx="429.4483124278486" cy="274.060416163411" r="1.4886788297444582" fill="rgba(255,255,255,0.07211076921783388)"/><circle cx="125.1842605881393" cy="171.26559528289363" r="1.5548340543173254" fill="rgba(255,255,255,0.07793296400457621)"/><circle cx="240.11020129546523" cy="248.7401342159137" r="1.076841046102345" fill="rgba(255,255,255,0.04120193884707987)"/><circle cx="709.8947796039283" cy="491.3662558165379" r="1.382657693233341" fill="rgba(255,255,255,0.048764810136053716)"/><circle cx="408.5935240611434" cy="60.17637077718973" r="1.7297926377505064" fill="rgba(255,255,255,0.04706458107801154)"/><circle cx="335.45648977160454" cy="352.103910301812" r="1.8327076542191207" fill="rgba(255,255,255,0.06116577622713521)"/><circle cx="1083.3726583980024" cy="509.1040323721245" r="1.6063328115269542" fill="rgba(255,255,255,0.0472316157608293)"/>
  <text x="600" y="335" font-family="system-ui, -apple-system, 'Segoe UI', sans-serif" font-size="58" font-weight="700" fill="rgba(0,0,0,0.15)" text-anchor="middle" letter-spacing="1">CBSE Class 10 English</text>
  <text x="600" y="332" font-family="system-ui, -apple-system, 'Segoe UI', sans-serif" font-size="58" font-weight="700" fill="white" text-anchor="middle" letter-spacing="1">CBSE Class 10 English</text>
  <g transform="translate(1140, 575)">
    <rect x="0" y="0" width="40" height="40" rx="8" fill="rgba(255,255,255,0.15)"/>
    <text x="20" y="29" font-family="sans-serif" font-weight="bold" font-size="24" fill="rgba(255,255,255,0.6)" text-anchor="middle">K</text>
  </g>
</svg>